<?xml version="1.0" standalone="no"?>
<!DOCTYPE svg PUBLIC "-//W3C//DTD SVG 20010904//EN"
 "http://www.w3.org/TR/2001/REC-SVG-20010904/DTD/svg10.dtd">
<svg version="1.0" xmlns="http://www.w3.org/2000/svg"
 width="232.000000pt" height="68.000000pt" viewBox="0 0 232.000000 68.000000"
 preserveAspectRatio="xMidYMid meet">
<metadata>
Created by potrace 1.16, written by Peter Selinger 2001-2019
</metadata>
<g transform="translate(0.000000,68.000000) scale(0.100000,-0.100000)"
fill="#000000" stroke="none">
<path d="M165 641 c-44 -11 -82 -39 -106 -77 -25 -42 -37 -173 -28 -316 8
-110 26 -152 84 -188 70 -43 380 -43 450 0 58 36 76 78 84 188 3 53 3 139 -1
190 -7 106 -27 147 -86 184 -34 21 -49 23 -202 25 -91 1 -179 -2 -195 -6z
m120 -214 c75 -72 75 -98 1 -173 -41 -40 -62 -54 -83 -54 -64 0 -72 56 -15
106 l37 34 -37 34 c-57 50 -49 106 14 106 21 0 43 -14 83 -53z"/>
<path d="M809 383 c-6 -16 -19 -52 -30 -80 l-18 -53 29 0 c16 0 32 5 35 10 3
6 15 10 26 10 10 0 19 -4 19 -10 0 -5 16 -10 34 -10 l35 0 -18 53 c-34 95 -42
107 -73 107 -22 0 -31 -6 -39 -27z"/>
<path d="M1178 385 c4 -23 2 -24 -25 -19 -36 7 -56 -14 -56 -58 0 -40 23 -56
84 -56 l49 -1 0 80 0 79 -29 0 c-25 0 -28 -3 -23 -25z"/>
<path d="M1908 385 c4 -23 2 -24 -25 -19 -36 7 -56 -14 -56 -58 0 -40 23 -56
84 -56 l49 -1 0 80 0 79 -29 0 c-25 0 -28 -3 -23 -25z"/>
<path d="M1480 309 c0 -59 0 -59 29 -59 27 0 30 4 34 38 l4 37 1 -37 c2 -35 4
-38 31 -38 27 0 30 4 34 38 l4 37 1 -37 c2 -35 4 -38 32 -38 30 0 30 1 30 54
0 64 1 64 -117 64 l-83 0 0 -59z"/>
</g>
</svg>
